<?xml version="1.0" encoding="utf-8"?>
<!-- Generator: Adobe Illustrator 22.1.0, SVG Export Plug-In . SVG Version: 6.00 Build 0)  -->
<svg version="1.1" xmlns="http://www.w3.org/2000/svg" xmlns:xlink="http://www.w3.org/1999/xlink" x="0px" y="0px"
	 viewBox="0 0 454.9 416.7" style="enable-background:new 0 0 454.9 416.7;" xml:space="preserve">
<style type="text/css">
	.st0{display:none;}
	.st1{display:inline;}
	.st2{fill:#F0EFEF;}
	.st3{fill:#DDDDDD;}
	.st4{fill:#3A3A3A;}
	.st5{fill:#1B1B1B;}
	.st6{fill:#C9C9C9;}
	.st7{fill:#E8E8E8;}
	.st8{fill:#D2C6A9;}
	.st9{fill:#DCCFA9;}
	.st10{fill:#C6B999;}
	.st11{fill:#EBBCD7;}
	.st12{fill:#CD9BBD;}
	.st13{fill:#DEA4CA;}
	.st14{display:none;fill:#3A3A3A;}
	.st15{display:none;fill:#1B1B1B;}
	.st16{display:none;fill:#2B2B2B;}
	.st17{display:none;fill:#B0B0B0;}
	.st18{display:none;clip-path:url(#SVGID_2_);fill:#B0B0B0;}
	.st19{fill:#251F20;}
	.st20{fill:#E2E2E2;}
</style>
<g id="Layer_2">
	<g>
		<polygon class="st2" points="385,318.2 416.5,337.7 416.5,186.2 385,204.2 		"/>
		<polygon class="st3" points="416.5,337.7 448.2,318 448.5,167.5 416.5,186.2 		"/>
		<polygon class="st4" points="385,272.7 416.5,290.4 416.5,337.7 385,319.4 		"/>
		<polygon class="st5" points="416.6,290.4 448.3,272.7 448.3,318 416.6,337.7 		"/>
	</g>
	<g>
		<polygon class="st2" points="286,271.9 317.5,291.4 317.5,139.9 286,157.9 		"/>
		<polygon class="st3" points="317.5,291.4 349.2,271.6 349.5,121.1 317.5,139.9 		"/>
		<polygon class="st4" points="286,226.4 317.5,244 317.5,291.4 286,273 		"/>
		<polygon class="st5" points="317.6,244 349.3,226.3 349.3,271.7 317.6,291.3 		"/>
	</g>
	<g>
		<polygon class="st2" points="202.2,397.2 233.7,416.7 233.7,265.2 202.2,283.2 		"/>
		<polygon class="st3" points="233.7,416.7 265.4,397 265.7,246.5 233.7,265.2 		"/>
		<polygon class="st4" points="202.2,351.7 233.7,369.4 233.7,416.7 202.2,398.4 		"/>
		<polygon class="st5" points="233.7,369.4 265.5,351.7 265.5,397 233.7,416.7 		"/>
	</g>
	<g>
		<polygon class="st2" points="103,338.2 134.5,357.7 134.5,206.2 103,224.2 		"/>
		<polygon class="st3" points="134.5,357.7 166.2,338 166.5,187.5 134.5,206.2 		"/>
		<polygon class="st4" points="103,292.7 134.5,310.4 134.5,357.7 103,339.4 		"/>
		<polygon class="st5" points="134.6,310.4 166.3,292.7 166.3,338 134.6,357.7 		"/>
	</g>
</g>
<g id="Layer_3">
	<polygon class="st6" points="454.9,70.5 454.9,211.6 433.7,221.1 426.8,94.8 435.7,73.3 	"/>
	<polygon class="st3" points="426.8,72 442.4,63.3 454.9,70.5 438.7,79.3 	"/>
	<polygon class="st5" points="416.5,236.2 454.9,214.5 454.9,198 416.5,219 	"/>
	<polygon class="st3" points="233.7,213.6 233.7,345.3 448.5,218.1 448.5,81.1 233.7,208.6 	"/>
	<polygon class="st2" points="233.7,345.3 102.5,266.5 103,128.1 233.7,208.6 	"/>
	<polygon class="st7" points="448.5,81.1 317.5,0.5 103,128.1 233.7,208.6 	"/>
	<polygon class="st4" points="398.2,110.9 355.8,84.8 286.2,126.2 328.6,152.3 	"/>
	<polyline class="st5" points="398.2,110.9 398.2,172.8 328.6,213.2 328.6,152.3 	"/>
	<polygon class="st4" points="335.2,36.8 309.7,21.1 267.9,45.9 293.3,61.6 	"/>
	<polyline class="st5" points="296.1,219.5 296.1,247.4 264.7,265.6 264.7,238.1 	"/>
</g>
<g id="Layer_4">
	<polygon class="st8" points="87.3,72.1 87.3,17.7 102.3,25.4 102.3,81.7 	"/>
	<polygon class="st9" points="103.8,8.1 87.3,17.7 102.3,25.4 118.7,15.6 	"/>
	<polygon class="st10" points="102.3,81.7 102.3,25.4 118.7,15.6 118.7,72 	"/>
	<path class="st3" d="M237,94.1V209l-92.7,55.7C144.3,264.7,85.2,171.4,237,94.1z"/>
	<polygon class="st11" points="0,160.7 0,214.2 114.5,282.2 114.5,229.2 	"/>
	<polygon class="st12" points="114.5,229.2 144.3,211.1 144.3,264.7 114.5,282.2 	"/>
	<path class="st5" d="M144.3,211.1"/>
	<polygon class="st13" points="0,160.7 30,142.1 144.3,211.1 114.5,229.2 	"/>
	<polygon class="st14" points="156,175.7 156,229.2 270.5,297.2 270.5,244.2 	"/>
	<polygon class="st15" points="270.5,244.2 300.3,226.1 300.3,279.7 270.5,297.2 	"/>
	<polygon class="st16" points="156,175.7 186,157.1 300.3,226.1 270.5,244.2 	"/>
	<path class="st17" d="M43.3,95.4c0,0,1.3-21.6,22-19.7s7,15.9,38.5,9.3s36.5,25.8,21.7,29.7c-14.8,3.8-43.2,13.3-54,1.8
		s10.5-12.8-10.8-11.5S42,101.6,43.3,95.4z"/>
	<path class="st2" d="M30,142.1c0,0,21.2-90.3,99.4-105.7L237,94.1c0,0-92.7,63.3-92.7,117L30,142.1z"/>
	<g>
		<defs>
			<path id="SVGID_1_" d="M30,142.1c0,0,21.2-90.3,99.4-105.7L237,94.1c0,0-92.7,63.3-92.7,117L30,142.1z"/>
		</defs>
		<clipPath id="SVGID_2_">
			<use xlink:href="#SVGID_1_"  style="display:none;overflow:visible;"/>
		</clipPath>
		<path class="st18" d="M43.3,95.4c0,0,1.3-21.6,22-19.7s7,15.9,38.5,9.3s36.5,25.8,21.7,29.7c-14.8,3.8-43.2,13.3-54,1.8
			s10.5-12.8-10.8-11.5S42,101.6,43.3,95.4z"/>
	</g>
</g>
<g id="Layer_5">
	
		<ellipse transform="matrix(0.2942 -0.9557 0.9557 0.2942 -18.356 306.1047)" class="st19" cx="198.1" cy="165.5" rx="17.1" ry="11"/>
	<polygon class="st11" points="118.7,7.1 143.7,22.1 143.7,61.7 118.7,46.4 	"/>
	<polygon class="st3" points="156.3,14.1 143.7,22.1 143.7,61.7 156.3,53.4 	"/>
	<polygon class="st7" points="132.5,0 118.7,7.1 143.7,22.1 156.3,14.1 	"/>
	<polygon class="st11" points="188.7,44.1 213.7,59.1 213.7,98.7 188.7,83.4 	"/>
	<polygon class="st3" points="226.3,51.1 213.7,59.1 213.7,98.7 226.3,90.4 	"/>
	<polygon class="st7" points="202.5,37 188.7,44.1 213.7,59.1 226.3,51.1 	"/>
	<polyline class="st9" points="214.7,125.6 229.5,117 239.5,132.5 237,143.8 214.7,125.6 	"/>
	<polygon class="st8" points="226.3,153.1 226.3,98.7 241.3,106.4 241.3,162.7 	"/>
	<polygon class="st9" points="242.9,89.1 226.3,98.7 241.3,106.4 257.7,96.6 	"/>
	<polygon class="st10" points="241.3,162.7 241.3,106.4 257.7,96.6 257.7,153 	"/>
	<polyline class="st8" points="240.2,162 214.7,145.7 214.7,125.6 241.3,142.1 	"/>
	<polyline class="st13" points="82.2,227.5 93.7,234.4 93.7,252 82.2,245.1 82.2,227.5 	"/>
	<polyline class="st13" points="16.4,188 28,194.9 28,212.5 16.4,205.6 16.4,188 	"/>
	<path class="st20" d="M45.8,121.1c0,0-6.7-42.9,41.8-44.4c48.5-1.5,68.6,20.9,68.6,20.9s33.2,22-26.9,48.8S45.8,121.1,45.8,121.1z"
		/>
</g>
</svg>
