<svg xmlns="http://www.w3.org/2000/svg" xmlns:xlink="http://www.w3.org/1999/xlink" viewBox="0 0 85 165"><defs><style>.a{fill:#85ca4c;}.b{fill:url(#a);}.c{fill:#19cc44;}.d{fill:#19b63d;}.e{fill:#07671a;}</style><linearGradient id="a" x1="25" y1="120.61" x2="42" y2="120.61" gradientUnits="userSpaceOnUse"><stop offset="0" stop-color="#8b6c30"/><stop offset="1" stop-color="#3f2f14"/></linearGradient></defs><title>Untitled-1</title><polygon class="a" points="24 125 9 134 26 150 55 165 85 149 77 140 82 137 60.29 120.2 49 123 42 117.69 24 125"/><path class="b" d="M25,112v15s9.07,5,17,0V112Z"/><polygon class="c" points="5 15 5 102 34 117 34 29 5 15"/><polygon class="d" points="34 0 63 15 34 29 5 15 34 0"/><polygon class="e" points="34 117 63 102 63 15 34 29 34 117"/><polygon class="c" points="0 117.69 0 133.31 5.21 136 5.21 120.2 0 117.69"/><polygon class="d" points="5.21 115 10.41 117.69 5.21 120.2 0 117.69 5.21 115"/><polygon class="e" points="5.21 136 10.41 133.31 10.41 117.69 5.21 120.2 5.21 136"/><polygon class="c" points="8 128.21 8 135.71 10.5 137 10.5 129.41 8 128.21"/><polygon class="d" points="10.5 126.91 13 128.21 10.5 129.41 8 128.21 10.5 126.91"/><polygon class="e" points="10.5 137 13 135.71 13 128.21 10.5 129.41 10.5 137"/><polygon class="c" points="65 118.41 65 133.41 70 136 70 120.83 65 118.41"/><polygon class="d" points="70 115.83 75 118.41 70 120.83 65 118.41 70 115.83"/><polygon class="e" points="70 136 75 133.41 75 118.41 70 120.83 70 136"/><polygon class="c" points="53 121.56 53 136.44 57.96 139 57.96 123.96 53 121.56"/><polygon class="d" points="57.96 119 62.91 121.56 57.96 123.96 53 121.56 57.96 119"/><polygon class="e" points="57.96 139 62.91 136.44 62.91 121.56 57.96 123.96 57.96 139"/><polygon class="c" points="62 130.69 62 141.19 65.5 143 65.5 132.38 62 130.69"/><polygon class="d" points="65.5 128.88 69 130.69 65.5 132.38 62 130.69 65.5 128.88"/><polygon class="e" points="65.5 143 69 141.19 69 130.69 65.5 132.38 65.5 143"/></svg>